<svg width="83" height="95" viewBox="0 0 83 95" fill="none" xmlns="http://www.w3.org/2000/svg">
<path d="M44.416 48.1763C43.5749 48.1763 42.8667 47.9784 42.2915 47.5825C41.7163 47.1867 41.2803 46.6579 40.9834 45.9961C40.6865 45.3343 40.5381 44.6107 40.5381 43.8252C40.5381 42.9717 40.6958 42.2109 41.0112 41.543C41.3328 40.8688 41.7998 40.3369 42.4121 39.9473C43.0244 39.5576 43.7759 39.3628 44.6665 39.3628C45.6499 39.3628 46.5065 39.6473 47.2363 40.2163C47.292 40.2596 47.3353 40.2812 47.3662 40.2812C47.4033 40.2812 47.425 40.2596 47.4312 40.2163C47.4373 40.173 47.4404 40.1421 47.4404 40.1235C47.4404 39.5422 47.4404 38.9639 47.4404 38.3887C47.4466 37.8135 47.4528 37.2352 47.459 36.6538C47.4652 36.3817 47.4652 36.1064 47.459 35.8281C47.4528 35.5436 47.459 35.2684 47.4775 35.0024C47.4961 34.7489 47.6229 34.6221 47.8579 34.6221H49.3052C49.5588 34.6221 49.6855 34.752 49.6855 35.0117C49.6855 35.3519 49.6794 35.6921 49.667 36.0322C49.6608 36.3662 49.6546 36.7033 49.6484 37.0435C49.6299 38.4598 49.6206 39.8823 49.6206 41.311C49.6206 42.7336 49.6299 44.1561 49.6484 45.5786C49.6546 45.9188 49.6608 46.259 49.667 46.5991C49.6794 46.9331 49.6855 47.2702 49.6855 47.6104C49.6855 47.8701 49.5588 48 49.3052 48H47.8394C47.6105 48 47.4899 47.9134 47.4775 47.7402C47.4714 47.5671 47.4652 47.4001 47.459 47.2393C47.459 47.2207 47.4559 47.1929 47.4497 47.1558C47.4435 47.1125 47.425 47.0908 47.394 47.0908C47.3631 47.0908 47.3198 47.1125 47.2642 47.1558C46.8498 47.4836 46.4045 47.7371 45.9282 47.9165C45.452 48.0897 44.9479 48.1763 44.416 48.1763ZM45.0933 46.126C45.6375 46.126 46.1169 46.0023 46.5312 45.7549C46.9456 45.5075 47.2487 45.1209 47.4404 44.5952C47.4342 44.3787 47.4312 44.1654 47.4312 43.9551C47.4312 43.7448 47.4312 43.5345 47.4312 43.3242C47.4312 43.2253 47.4342 43.117 47.4404 42.9995C47.4466 42.882 47.4435 42.7769 47.4312 42.6841C47.425 42.616 47.391 42.5264 47.3291 42.415C47.2673 42.3037 47.2209 42.2202 47.1899 42.1646C46.9611 41.8182 46.6549 41.5615 46.2715 41.3945C45.8942 41.2214 45.5015 41.1348 45.0933 41.1348C44.6232 41.1348 44.2119 41.2523 43.8594 41.4873C43.513 41.7223 43.244 42.0316 43.0522 42.415C42.8667 42.7985 42.7739 43.216 42.7739 43.6675C42.7739 44.0942 42.8729 44.4963 43.0708 44.8735C43.2749 45.2446 43.5532 45.5477 43.9058 45.7827C44.2583 46.0116 44.6541 46.126 45.0933 46.126ZM60.5679 43.8159C60.5679 44.6138 60.4009 45.3436 60.0669 46.0054C59.7329 46.6672 59.2598 47.196 58.6475 47.5918C58.0352 47.9814 57.3115 48.1763 56.4766 48.1763C55.4684 48.1763 54.6056 47.8577 53.8882 47.2207C53.8696 47.2083 53.848 47.1929 53.8232 47.1743C53.8047 47.1496 53.7799 47.1372 53.749 47.1372C53.7181 47.1372 53.6995 47.1619 53.6934 47.2114C53.6872 47.2547 53.6841 47.2856 53.6841 47.3042C53.6841 47.4526 53.6779 47.6073 53.6655 47.7681C53.6532 47.9227 53.5387 48 53.3223 48H51.8379C51.5843 48 51.4575 47.8701 51.4575 47.6104C51.4575 47.2702 51.4606 46.9331 51.4668 46.5991C51.4792 46.259 51.4884 45.9188 51.4946 45.5786C51.507 44.8674 51.5163 44.1561 51.5225 43.4448C51.5286 42.7336 51.5317 42.0223 51.5317 41.311C51.5317 40.5998 51.5286 39.8885 51.5225 39.1772C51.5163 38.466 51.507 37.7547 51.4946 37.0435C51.4884 36.7033 51.4792 36.3662 51.4668 36.0322C51.4606 35.6921 51.4575 35.3519 51.4575 35.0117C51.4575 34.752 51.5843 34.6221 51.8379 34.6221H53.2759C53.4243 34.6221 53.5202 34.653 53.5635 34.7148C53.613 34.7767 53.6439 34.8726 53.6562 35.0024C53.681 35.2004 53.6872 35.4694 53.6748 35.8096C53.6686 36.1497 53.6686 36.4312 53.6748 36.6538C53.681 37.2352 53.6841 37.8135 53.6841 38.3887C53.6903 38.9639 53.6934 39.5422 53.6934 40.1235C53.6934 40.1483 53.6965 40.1792 53.7026 40.2163C53.7088 40.2534 53.7305 40.272 53.7676 40.272C53.7985 40.272 53.8387 40.2534 53.8882 40.2163C54.6922 39.6473 55.5859 39.3628 56.5693 39.3628C57.4476 39.3628 58.1805 39.5638 58.7681 39.9658C59.3618 40.3617 59.8102 40.8966 60.1133 41.5708C60.4163 42.245 60.5679 42.9933 60.5679 43.8159ZM56.0405 46.126C56.4982 46.126 56.9002 46.0116 57.2466 45.7827C57.5929 45.5539 57.862 45.2508 58.0537 44.8735C58.2516 44.4963 58.3506 44.0881 58.3506 43.6489C58.3506 43.2036 58.2547 42.7923 58.063 42.415C57.8713 42.0316 57.6022 41.7223 57.2559 41.4873C56.9157 41.2523 56.5106 41.1348 56.0405 41.1348C55.62 41.1348 55.2148 41.2275 54.8252 41.4131C54.4417 41.5924 54.1387 41.8677 53.916 42.2388C53.8913 42.2821 53.8542 42.3532 53.8047 42.4521C53.7552 42.5511 53.7243 42.6253 53.7119 42.6748C53.6995 42.749 53.6965 42.8356 53.7026 42.9346C53.7088 43.0335 53.7119 43.1232 53.7119 43.2036C53.7119 43.4386 53.7119 43.6768 53.7119 43.918C53.7119 44.153 53.7088 44.388 53.7026 44.623C53.9006 45.1302 54.2067 45.5075 54.6211 45.7549C55.0355 46.0023 55.5086 46.126 56.0405 46.126Z" fill="black"/>
<path d="M12.4 33.75L20.9 56.35H21L29.55 33.75H39.45V37.8L37.8 37.95C36.8 38.05 36.3167 38.6333 36.35 39.7L37.6 62.6L40.7 62.75V67H28.65V62.95L30.45 62.8C31.35 62.7333 31.7833 62.3 31.75 61.5L30.8 43.85H30.7L23 63.8H18.25L10.65 44.05H10.55L9.55 62.6L12.8 62.75V67H1V62.95L2.8 62.8C3.56667 62.7333 3.98333 62.2833 4.05 61.45L5.4 38.2L2.35 38V33.75H12.4Z" fill="black"/>
</svg>
