<svg width="16" height="16" viewBox="0 0 16 16" fill="none" xmlns="http://www.w3.org/2000/svg">
<path d="M8.46728 1.6327L9.79835 5.129C10.0102 5.68546 10.5311 6.06393 11.1258 6.09346L14.8623 6.27897C15.3213 6.30175 15.509 6.87958 15.1511 7.16779L12.2373 9.51413C11.7735 9.88757 11.5745 10.5 11.7302 11.0747L12.7084 14.6856C12.8286 15.1292 12.3371 15.4863 11.9524 15.2349L8.82042 13.1888C8.32195 12.8631 7.67805 12.8631 7.17958 13.1888L4.04765 15.2349C3.66294 15.4863 3.17141 15.1292 3.29157 14.6856L4.26978 11.0747C4.42547 10.5 4.2265 9.88757 3.76274 9.51413L0.848881 7.16779C0.490957 6.87958 0.678702 6.30175 1.13768 6.27897L4.87418 6.09346C5.46887 6.06393 5.9898 5.68546 6.20165 5.129L7.53272 1.6327C7.69622 1.20323 8.30378 1.20323 8.46728 1.6327Z" stroke="#006AFF"/>
</svg>
