<svg width="17" height="17" viewBox="0 0 17 17" fill="none" xmlns="http://www.w3.org/2000/svg">
<path d="M14.7616 3.26541C14.3998 2.90346 13.9702 2.61633 13.4975 2.42043C13.0247 2.22453 12.5179 2.1237 12.0062 2.1237C11.4944 2.1237 10.9877 2.22453 10.5149 2.42043C10.0421 2.61633 9.61254 2.90346 9.25075 3.26541L8.49992 4.01625L7.74909 3.26541C7.01831 2.53463 6.02715 2.12408 4.99367 2.12408C3.96019 2.12408 2.96904 2.53463 2.23825 3.26541C1.50747 3.99619 1.09692 4.98735 1.09692 6.02083C1.09692 7.05431 1.50747 8.04546 2.23825 8.77625L8.49992 15.0379L14.7616 8.77625C15.1235 8.41446 15.4107 7.98491 15.6066 7.51212C15.8025 7.03934 15.9033 6.53259 15.9033 6.02083C15.9033 5.50907 15.8025 5.00232 15.6066 4.52954C15.4107 4.05675 15.1235 3.6272 14.7616 3.26541Z" stroke="#F72A2A" stroke-linecap="round" stroke-linejoin="round"/>
</svg>
