<svg width="16" height="16" viewBox="0 0 16 16" fill="none" xmlns="http://www.w3.org/2000/svg">
<path d="M7.06544 1.4548C7.39244 0.595861 8.60756 0.595862 8.93456 1.4548L10.2656 4.9511C10.4069 5.32207 10.7542 5.57439 11.1506 5.59407L14.8871 5.77958C15.8051 5.82516 16.1806 6.9808 15.4647 7.55723L12.5509 9.90357C12.2417 10.1525 12.109 10.5608 12.2128 10.9439L13.191 14.5549C13.4314 15.442 12.4483 16.1562 11.6789 15.6535L8.54695 13.6073C8.21463 13.3902 7.78537 13.3902 7.45305 13.6073L4.32112 15.6535C3.5517 16.1562 2.56865 15.442 2.80896 14.5549L3.78718 10.9439C3.89097 10.5608 3.75832 10.1525 3.44915 9.90357L0.535292 7.55723C-0.180557 6.9808 0.194935 5.82516 1.11288 5.77958L4.84939 5.59407C5.24585 5.57439 5.59313 5.32207 5.73436 4.9511L7.06544 1.4548Z" fill="#FFE100"/>
</svg>
