<?xml version="1.0" encoding="UTF-8"?>
<svg id="_图层_1" data-name="图层_1" xmlns="http://www.w3.org/2000/svg" version="1.1" viewBox="0 0 92 102">
  <!-- Generator: Adobe Illustrator 29.2.1, SVG Export Plug-In . SVG Version: 2.1.0 Build 116)  -->
  <defs>
    <style>
      .st0 {
        opacity: .9;
      }

      .st1 {
        fill: #ff5252;
      }
    </style>
  </defs>
  <g class="st0">
    <path class="st1" d="M68.9,101.3H23.1c-3.6,0-7.1-1.4-9.7-4s-4-6-4-9.7V28h-4.7c-2.5,0-4.5-2-4.5-4.5s2-4.5,4.5-4.5h18.4v-4.7c0-3.7,1.4-7.1,4-9.7,2.6-2.6,6-4,9.7-4h18.3c3.7,0,7.1,1.4,9.7,4s4,6,4,9.7v4.7h18.4c2.5,0,4.5,2,4.5,4.5s-2,4.5-4.5,4.5h-4.7v59.7c0,3.7-1.4,7.1-4,9.7s-6,4-9.7,4ZM18.4,28v59.7c0,1.2.5,2.4,1.4,3.3.9.9,2.1,1.4,3.3,1.4h45.8c1.2,0,2.4-.5,3.3-1.4.9-.9,1.4-2.1,1.4-3.3V28H18.4ZM32.2,19h27.7v-4.7c0-1.2-.5-2.4-1.4-3.3-.9-.9-2.1-1.4-3.3-1.4h-18.3c-1.2,0-2.4.5-3.3,1.4-.9.9-1.4,2.1-1.4,3.3v4.7ZM55.2,78.4c-2.5,0-4.5-2-4.5-4.5v-27.5c0-2.5,2-4.5,4.5-4.5s4.5,2,4.5,4.5v27.5c0,2.5-2,4.5-4.5,4.5ZM36.8,78.4c-2.5,0-4.5-2-4.5-4.5v-27.5c0-2.5,2-4.5,4.5-4.5s4.5,2,4.5,4.5v27.5c0,2.5-2,4.5-4.5,4.5Z"/>
  </g>
</svg>